<?xml version="1.0" encoding="UTF-8" standalone="no"?>
<svg
   xmlns:dc="http://purl.org/dc/elements/1.1/"
   xmlns:cc="http://creativecommons.org/ns#"
   xmlns:rdf="http://www.w3.org/1999/02/22-rdf-syntax-ns#"
   xmlns:svg="http://www.w3.org/2000/svg"
   xmlns="http://www.w3.org/2000/svg"
   xmlns:sodipodi="http://sodipodi.sourceforge.net/DTD/sodipodi-0.dtd"
   xmlns:inkscape="http://www.inkscape.org/namespaces/inkscape"
   width="210mm"
   height="297mm"
   viewBox="0 0 210 297"
   version="1.1"
   id="svg8"
   inkscape:version="1.0.1 (3bc2e813f5, 2020-09-07)"
   sodipodi:docname="avatar.svg">
  <defs
     id="defs2" />
  <sodipodi:namedview
     id="base"
     pagecolor="#ffffff"
     bordercolor="#666666"
     borderopacity="1.0"
     inkscape:pageopacity="0.0"
     inkscape:pageshadow="2"
     inkscape:zoom="0.49497475"
     inkscape:cx="530.77282"
     inkscape:cy="765.16665"
     inkscape:document-units="mm"
     inkscape:current-layer="layer1"
     inkscape:document-rotation="0"
     showgrid="false"
     inkscape:window-width="1920"
     inkscape:window-height="959"
     inkscape:window-x="0"
     inkscape:window-y="0"
     inkscape:window-maximized="1" />
  <metadata
     id="metadata5">
    <rdf:RDF>
      <cc:Work
         rdf:about="">
        <dc:format>image/svg+xml</dc:format>
        <dc:type
           rdf:resource="http://purl.org/dc/dcmitype/StillImage" />
        <dc:title></dc:title>
      </cc:Work>
    </rdf:RDF>
  </metadata>
  <g
     inkscape:label="Calque 1"
     inkscape:groupmode="layer"
     id="layer1">
    <path
       style="fill:none;stroke:#000000;stroke-width:3;stroke-linecap:round;stroke-linejoin:miter;stroke-miterlimit:4;stroke-dasharray:none;stroke-opacity:1"
       d="m 52.796397,52.102204 c 0,0 -1.484344,2.38312 -2.988159,6.388732 -1.503816,4.005612 -3.027102,9.633717 -3.104986,16.123687 -0.124864,10.404775 0.233086,18.359501 -1.294662,24.101951 -1.527748,5.742456 -4.503748,18.236596 -4.575103,23.667676 -0.04119,3.13526 0.106893,2.88125 0.483249,6.29108 0.376357,3.40983 0.543539,3.55225 1.306855,6.97299 0.763316,3.42073 1.712465,4.7483 2.832153,7.91628 1.119687,3.16799 2.409913,6.14368 3.855384,8.79524 2.890941,5.30313 5.877539,9.69175 8.853553,14.16908 3.320042,4.9949 10.082126,13.37816 14.789273,16.06907 3.584099,2.0489 8.158724,1.2683 12.245901,0.16999 5.494051,-1.47636 9.20934,-3.10114 13.016673,-4.69737 5.253562,-2.20258 8.801772,-3.48446 13.340232,-5.93874 10.25269,-6.12431 16.65583,-7.72278 23.24077,-16.05411 3.4476,-4.39558 6.47924,-9.1372 9.1169,-14.00005 3.76051,-6.93296 7.43135,-22.46421 7.43135,-22.46421"
       id="path10"
       sodipodi:nodetypes="cssssssssssssccsc" />
    <path
       style="fill:none;stroke:#000000;stroke-width:3;stroke-linecap:round;stroke-linejoin:miter;stroke-miterlimit:4;stroke-dasharray:none;stroke-opacity:1"
       d="m 43.771647,64.035063 v 0 c 0,0 -2.119076,-5.856352 -1.530533,-10.950741 0.577158,-4.995843 1.583427,-8.953797 4.99773,-12.646235 l 5.997903,-6.486504 c 5.832291,-4.461148 11.690954,-0.824779 11.690954,-0.824779 0,0 9.514162,-5.91893 14.754115,-7.775872 4.796048,-1.69963 9.946367,-2.18027 14.972314,-2.974417 6.85425,-1.083036 13.07809,-0.905921 19.60464,-0.531408 3.12841,0.179518 6.294,0.465085 9.30641,1.327996 6.02808,1.726758 11.69758,4.608611 17.20547,7.605698 2.82829,1.538998 5.52384,3.336232 8.0776,5.297365 6.44877,4.952264 13.32299,9.739445 18.1879,16.254372 3.37669,4.521952 6.0675,10.035607 7.23193,15.308489 1.3332,6.037101 1.94023,10.618793 2.48895,16.296133 0.65659,6.793468 1.13513,13.749402 0.22029,20.51294 -0.91071,6.73299 -2.12317,12.1495 -4.20741,19.97631 -1.18301,4.44248 -2.36426,9.25207 -6.56898,18.87695 -2.75883,6.31517 -4.45811,9.27013 -8.15172,15.0882 -1.86297,2.9345 -6.6619,8.02226 -6.6619,8.02226 v 0"
       id="path835"
       sodipodi:nodetypes="ccssccssaaaaasssssscc" />
    <path
       style="fill:none;stroke:#000000;stroke-width:3;stroke-linecap:round;stroke-linejoin:miter;stroke-miterlimit:4;stroke-dasharray:none;stroke-opacity:1"
       d="m 63.129897,48.81323 c 0,0 6.134908,10.324849 10.107174,14.77917 2.623731,2.942134 5.865243,5.274661 8.936823,7.745595 3.912991,3.147808 7.941673,6.157693 12.077242,9.006773 3.349557,2.30758 6.717484,4.617192 10.301364,6.540797 3.3705,1.809074 7.01675,3.051607 10.48093,4.674084 5.29444,2.479693 10.38794,5.385659 15.7428,7.732024 4.22066,1.849387 12.89158,4.991467 12.89158,4.991467 v 0"
       id="path837"
       sodipodi:nodetypes="csssssscc" />
    <path
       style="fill:none;stroke:#000000;stroke-width:3;stroke-linecap:round;stroke-linejoin:miter;stroke-miterlimit:4;stroke-dasharray:none;stroke-opacity:1"
       d="m 150.60116,102.63672 c 0,0 3.14858,-2.55263 5.0468,-3.087173 1.21497,-0.342135 2.63885,-0.525109 3.78666,0 2.25106,1.029833 3.84388,3.359723 4.85575,5.618923 0,0 0.73951,1.32552 0.91978,2.05359 0.29268,1.18206 0.35312,2.43371 0.23491,3.64572 -0.16078,1.64852 -0.52393,3.32557 -1.27162,4.80355 -0.65953,1.3037 -1.72619,2.37056 -2.74891,3.41395 -1.1198,1.14243 -2.27915,2.30623 -3.67705,3.08404 -0.64758,0.36032 -1.38109,0.81628 -2.11205,0.69427 -1.76946,-0.29536 -4.28965,-3.25009 -4.28965,-3.25009 v 0 0"
       id="path839"
       sodipodi:nodetypes="cassssssssccc" />
    <path
       style="fill:none;stroke:#000000;stroke-width:3;stroke-linecap:round;stroke-linejoin:miter;stroke-miterlimit:4;stroke-dasharray:none;stroke-opacity:1"
       d="m 53.255542,96.335002 c 2.004641,-0.236397 3.728467,-0.47025 5.491551,-0.190533 1.389176,0.220395 3.902004,0.771214 4.970587,1.388809 1.147772,0.663363 2.616957,2.825902 2.334434,3.592742 -0.262114,0.61486 -2.007229,1.18151 -2.667476,1.07743 -0.611338,-0.0964 -2.802373,-1.06088 -2.745515,-1.84739 0.02705,-0.374213 0.520613,-0.644615 1.007411,-0.821465 0.486798,-0.17685 2.039304,0.44535 2.039304,0.44535"
       id="path845"
       sodipodi:nodetypes="csscsssc" />
    <path
       style="fill:none;stroke:#000000;stroke-width:3;stroke-linecap:round;stroke-linejoin:miter;stroke-miterlimit:4;stroke-dasharray:none;stroke-opacity:1"
       d="m 102.87129,108.47073 c 2.00464,-0.2364 3.72847,-0.47025 5.49155,-0.19054 1.38918,0.2204 3.90201,0.77122 4.97059,1.38881 1.14777,0.66336 2.61696,2.8259 2.33443,3.59274 -0.26211,0.61486 -2.00723,1.18151 -2.66747,1.07743 -0.61134,-0.0964 -2.80238,-1.06088 -2.74552,-1.84739 0.0271,-0.37421 0.52062,-0.64461 1.00741,-0.82146 0.4868,-0.17685 2.03931,0.44535 2.03931,0.44535"
       id="path845-3"
       sodipodi:nodetypes="csscsssc" />
    <path
       style="fill:none;stroke:#000000;stroke-width:3;stroke-linecap:round;stroke-linejoin:miter;stroke-opacity:1;stroke-miterlimit:4;stroke-dasharray:none"
       d="m 51.787168,85.152425 5.141065,0.658505 h 9.123106 l 8.440976,4.049956 v 0"
       id="path864" />
    <path
       style="fill:none;stroke:#000000;stroke-width:3;stroke-linecap:round;stroke-linejoin:miter;stroke-opacity:1;stroke-miterlimit:4;stroke-dasharray:none"
       d="m 103.18307,99.344249 h 6.53338 l 1.57539,0.429651 6.48318,2.99576 5.553,4.43384"
       id="path866" />
    <path
       style="fill:none;stroke:#000000;stroke-width:3;stroke-linecap:round;stroke-linejoin:miter;stroke-opacity:1;stroke-miterlimit:4;stroke-dasharray:none"
       d="m 73.240269,128.74814 -2.68865,4.14445 -2.390405,3.05777 2.505567,2.4657 1.913506,0.77219 v 0"
       id="path868" />
    <path
       style="fill:none;stroke:#000000;stroke-width:3;stroke-linecap:round;stroke-linejoin:miter;stroke-opacity:1;stroke-miterlimit:4;stroke-dasharray:none"
       d="m 70.694835,158.46504 6.465459,2.17484 h 4.231563 l 10.174351,-1.29634 12.482072,-6.31338"
       id="path870" />
    <path
       style="fill:none;stroke:#000000;stroke-width:3;stroke-linecap:round;stroke-linejoin:miter;stroke-miterlimit:4;stroke-dasharray:none;stroke-opacity:1"
       d="m 135.58862,162.28319 c 0,0 -1.90074,1.96642 -2.80529,2.99132 -1.36484,1.54644 -2.96209,2.95165 -3.95251,4.76088 -0.79851,1.45867 -1.449,3.09119 -1.51634,4.75276 -0.15582,3.84504 1.38721,7.59666 2.60746,11.24626 0.39719,1.18796 1.52371,3.43501 1.52371,3.43501 v 0 0"
       id="path872"
       sodipodi:nodetypes="caaaaaac" />
    <path
       style="fill:none;stroke:#000000;stroke-width:3;stroke-linecap:round;stroke-linejoin:miter;stroke-miterlimit:4;stroke-dasharray:none;stroke-opacity:1"
       d="m 151.38731,166.41182 c 0,0 0.71839,2.56252 1.07759,3.84378 0.3592,1.28126 0.90945,2.52378 1.07759,3.84377 0.33383,2.62076 0.19724,5.30628 -0.15798,7.92422 -0.27839,2.05173 -0.72916,4.11176 -1.53553,6.01882 -0.63558,1.50315 -1.45826,2.96945 -2.5602,4.17325 -0.7404,0.80883 -1.76094,1.30717 -2.64141,1.96075 -0.88047,0.65358 -1.71327,1.37683 -2.6414,1.96075 -1.47327,0.92689 -3.08041,1.62165 -4.62061,2.43248 -1.5402,0.81083 -4.62061,2.43248 -4.62061,2.43248 v 0 l 0,0"
       id="path876"
       sodipodi:nodetypes="caaaaaaaaaac" />
    <path
       style="fill:none;stroke:#000000;stroke-width:3;stroke-linecap:round;stroke-linejoin:miter;stroke-miterlimit:4;stroke-dasharray:none;stroke-opacity:1"
       d="m 131.44565,189.46942 v 0 0 c 0,0 -3.21427,2.59022 -4.82141,3.88533 -1.60714,1.29511 -3.50455,2.29597 -4.82141,3.88533 -1.31481,1.58689 -2.30838,3.48217 -2.91677,5.45112 -0.65744,2.1277 -0.81181,4.41682 -0.72052,6.6419 0.0573,1.39638 0.19889,2.85175 0.79213,4.11714 0.44155,0.94184 1.31898,1.60886 1.97847,2.41329 0.65949,0.80443 1.97847,2.41329 1.97847,2.41329 v 0 0"
       id="path878"
       sodipodi:nodetypes="caaaaaaaaaac" />
    <path
       style="fill:none;stroke:#000000;stroke-width:3;stroke-linecap:round;stroke-linejoin:miter;stroke-miterlimit:4;stroke-dasharray:none;stroke-opacity:1"
       d="m 130.92076,202.06075 3.84399,-1.05863 v 0 c 0,0 4.44718,5.24679 5.35885,8.45722 0.73639,2.59319 0.32762,5.42382 -0.0923,8.08663 -0.36413,2.30902 -0.9874,4.631 -2.08183,6.69652 -0.86788,1.63796 -2.1288,3.06522 -3.46674,4.3482 -1.36595,1.30985 -2.92361,2.44149 -4.5837,3.35012 -1.34217,0.73462 -2.8042,1.2536 -4.27881,1.66176 -1.47521,0.40832 -4.52612,0.77515 -4.52612,0.77515 v 0 0"
       id="path880"
       sodipodi:nodetypes="ccaaaaaaaaac" />
    <path
       style="fill:none;stroke:#000000;stroke-width:3;stroke-linecap:round;stroke-linejoin:miter;stroke-miterlimit:4;stroke-dasharray:none;stroke-opacity:1"
       d="m 122.91461,218.27682 v 0 0 c 0,0 -5.71328,1.64925 -7.89468,3.53466 -2.45938,2.12567 -4.01854,5.21408 -5.23187,8.22984 -0.87361,2.17136 -1.23829,4.54749 -1.38641,6.88331 -0.18591,2.9318 -0.23227,5.98337 0.63489,8.79016 0.66861,2.16417 3.41876,5.87266 3.41876,5.87266 v 0 0"
       id="path882"
       sodipodi:nodetypes="cacaaaacac" />
    <path
       style="fill:none;stroke:#000000;stroke-width:3;stroke-linecap:round;stroke-linejoin:miter;stroke-miterlimit:4;stroke-dasharray:none;stroke-opacity:1"
       d="m 121.09412,234.37772 c 0,0 4.90117,0.80814 6.44996,2.5196 1.7999,1.98894 2.17612,5.06754 2.16746,7.74998 -0.007,2.18971 -0.81634,4.36365 -1.81016,6.31487 -0.51877,1.01854 -1.35751,1.84277 -2.1106,2.70267 -1.02495,1.17029 -2.15363,2.24632 -3.26744,3.33239 -1.42183,1.38643 -2.83063,2.79303 -4.35779,4.06251 -0.71899,0.59768 -2.25533,1.66763 -2.25533,1.66763 l 2.25533,-1.66763 -3.64492,2.91471"
       id="path884"
       sodipodi:nodetypes="caaaaaaacc" />
    <path
       style="fill:none;stroke:#000000;stroke-width:3;stroke-linecap:round;stroke-linejoin:miter;stroke-miterlimit:4;stroke-dasharray:none;stroke-opacity:1"
       d="m 112.4553,251.58745 c 0,0 -3.67768,-0.0998 -5.25697,0.69394 -1.6726,0.84062 -2.98232,2.40444 -3.91191,4.02928 -1.00067,1.74908 -1.5392,3.81434 -1.60492,5.82836 -0.0686,2.1032 0.568,4.20097 1.27567,6.18273 0.44001,1.23218 1.21415,2.31805 1.82122,3.47708 0.60708,1.15902 1.82123,3.47707 1.82123,3.47707 v 0 0"
       id="path886"
       sodipodi:nodetypes="caaaaaaac" />
    <path
       style="fill:none;stroke:#000000;stroke-width:3;stroke-linecap:round;stroke-linejoin:miter;stroke-miterlimit:4;stroke-dasharray:none;stroke-opacity:1"
       d="m 114.52063,263.97445 3.64492,-2.91471"
       id="path888"
       sodipodi:nodetypes="cc" />
    <path
       style="fill:none;stroke:#000000;stroke-width:3;stroke-linecap:round;stroke-linejoin:miter;stroke-miterlimit:4;stroke-dasharray:none;stroke-opacity:1"
       d="m 118.12937,260.85525 c 0.94427,-1.09042 2.52184,0.93272 3.17625,1.99886 0.88927,1.44877 0.83979,3.41943 0.46814,5.07823 -0.28225,1.25974 -1.13459,2.34948 -1.96707,3.33619 -0.94677,1.12217 -2.01679,2.25899 -3.36345,2.84393 -1.51525,0.65817 -3.28121,0.38782 -4.92181,0.58172 -1.6406,0.19391 -4.92181,0.58173 -4.92181,0.58173 v 0 0"
       id="path892"
       sodipodi:nodetypes="caaaaaaac" />
    <path
       style="fill:none;stroke:#000000;stroke-width:3;stroke-linecap:round;stroke-linejoin:miter;stroke-miterlimit:4;stroke-dasharray:none;stroke-opacity:1"
       d="m 106.59962,275.27591 c 0,0 -2.8492,2.96786 -3.74343,4.78477 -1.29681,2.63486 -1.90844,5.6109 -2.18679,8.53437 -0.12577,1.32094 0.0138,2.66632 0.24262,3.97334 0.3236,1.84794 0.85327,3.67307 1.58629,5.39999 0.62147,1.46415 1.40094,2.87819 2.35902,4.14785 0.89791,1.18992 2.00257,2.21919 3.13159,3.19256 1.1868,1.02318 2.53608,1.84115 3.80412,2.76173 1.26804,0.92058 3.80412,2.76174 3.80412,2.76174 0,0 -0.0882,-3.24228 0.11157,-4.84547 0.1333,-1.06974 0.34676,-2.14172 0.72127,-3.15258 0.48732,-1.31533 1.23935,-2.52041 1.96075,-3.72338 0.87791,-1.46398 2.12522,-2.70471 2.87321,-4.23913 0.67737,-1.38958 1.17401,-2.88852 1.42131,-4.41449 0.35551,-2.19363 0.50312,-4.48767 0.0656,-6.66644 -0.38229,-1.904 -1.24301,-3.72399 -2.30169,-5.35204 -1.07143,-1.64767 -4.00605,-4.32627 -4.00605,-4.32627 v 0 0 0 0"
       id="path896"
       sodipodi:nodetypes="caaaaaaacaaaaaaacaaac" />
    <path
       style="fill:none;stroke:#000000;stroke-width:3;stroke-linecap:round;stroke-linejoin:miter;stroke-miterlimit:4;stroke-dasharray:none;stroke-opacity:1"
       d="m 88.65904,185.65127 c 0,0 -0.699646,7.87388 -2.569059,11.22707 -1.938322,3.47679 -4.694178,7.22471 -8.501509,8.38635 -10.261647,3.13088 -20.900665,-6.05241 -31.628929,-5.96198 -6.385438,0.0538 -13.27817,0.59528 -18.762975,3.86539 -5.703137,3.40028 -12.812802,15.25193 -12.812802,15.25193 v 0"
       id="path900"
       sodipodi:nodetypes="caaaaac" />
    <path
       style="fill:none;stroke:#000000;stroke-width:3;stroke-linecap:round;stroke-linejoin:miter;stroke-miterlimit:4;stroke-dasharray:none;stroke-opacity:1"
       d="m 143.21888,200.54715 c 0,0 0.87357,5.12725 2.79276,6.49486 1.34587,0.95906 3.29336,0.43503 4.94448,0.36436 3.78547,-0.16203 7.46315,-1.3343 11.22324,-1.80094 6.01965,-0.74706 12.06563,-1.81995 18.12734,-1.59631 4.11135,0.15169 8.31918,0.56887 12.18165,1.98573 2.93511,1.07668 5.7639,2.6883 8.03687,4.83486 2.69699,2.547 6.27249,9.19262 6.27249,9.19262"
       id="path902"
       sodipodi:nodetypes="caaaaaac" />
  </g>
</svg>
