<?xml version="1.0" encoding="UTF-8" standalone="no"?>
<svg
   xmlns:dc="http://purl.org/dc/elements/1.1/"
   xmlns:cc="http://creativecommons.org/ns#"
   xmlns:rdf="http://www.w3.org/1999/02/22-rdf-syntax-ns#"
   xmlns:svg="http://www.w3.org/2000/svg"
   xmlns="http://www.w3.org/2000/svg"
   xmlns:sodipodi="http://sodipodi.sourceforge.net/DTD/sodipodi-0.dtd"
   xmlns:inkscape="http://www.inkscape.org/namespaces/inkscape"
   width="195.41394mm"
   height="293.77869mm"
   viewBox="0 0 195.41394 293.77869"
   version="1.1"
   id="svg8"
   inkscape:version="1.0.1 (3bc2e813f5, 2020-09-07)"
   sodipodi:docname="shoulders2.svg">
  <defs
     id="defs2" />
  <sodipodi:namedview
     id="base"
     pagecolor="#ffffff"
     bordercolor="#666666"
     borderopacity="1.0"
     inkscape:pageopacity="0.0"
     inkscape:pageshadow="2"
     inkscape:zoom="0.49497475"
     inkscape:cx="482.07827"
     inkscape:cy="689.36499"
     inkscape:document-units="mm"
     inkscape:current-layer="layer1"
     inkscape:document-rotation="0"
     showgrid="false"
     inkscape:window-width="1920"
     inkscape:window-height="959"
     inkscape:window-x="0"
     inkscape:window-y="0"
     inkscape:window-maximized="1" />
  <metadata
     id="metadata5">
    <rdf:RDF>
      <cc:Work
         rdf:about="">
        <dc:format>image/svg+xml</dc:format>
        <dc:type
           rdf:resource="http://purl.org/dc/dcmitype/StillImage" />
        <dc:title></dc:title>
      </cc:Work>
    </rdf:RDF>
  </metadata>
  <g
     inkscape:label="Calque 1"
     inkscape:groupmode="layer"
     id="layer1"
     transform="translate(-12.883766,-20.055856)">
    <g
       id="g1012">
      <path
         style="fill:none;stroke:#000000;stroke-width:3;stroke-linecap:round;stroke-linejoin:miter;stroke-miterlimit:4;stroke-dasharray:none;stroke-opacity:1"
         d="m 88.65904,185.65127 c 0,0 -0.699646,7.87388 -2.569059,11.22707 -1.938322,3.47679 -4.694178,7.22471 -8.501509,8.38635 -10.261647,3.13088 -20.900665,-6.05241 -31.628929,-5.96198 -6.385438,0.0538 -13.27817,0.59528 -18.762975,3.86539 -5.703137,3.40028 -12.812802,15.25193 -12.812802,15.25193 v 0"
         id="path900"
         sodipodi:nodetypes="caaaaac" />
      <path
         style="fill:none;stroke:#000000;stroke-width:3;stroke-linecap:round;stroke-linejoin:miter;stroke-miterlimit:4;stroke-dasharray:none;stroke-opacity:1"
         d="m 143.21888,200.54715 c 0,0 0.87357,5.12725 2.79276,6.49486 1.34587,0.95906 3.29336,0.43503 4.94448,0.36436 3.78547,-0.16203 7.46315,-1.3343 11.22324,-1.80094 6.01965,-0.74706 12.06563,-1.81995 18.12734,-1.59631 4.11135,0.15169 8.31918,0.56887 12.18165,1.98573 2.93511,1.07668 5.7639,2.6883 8.03687,4.83486 2.69699,2.547 6.27249,9.19262 6.27249,9.19262"
         id="path902"
         sodipodi:nodetypes="caaaaaac" />
    </g>
  </g>
</svg>
